<svg xmlns="http://www.w3.org/2000/svg" viewBox="0 0 259 219" width="259" height="219">
	<style>
		tspan { white-space:pre }
		.shp0 { fill: #cd243b } 
		.shp1 { fill: #000000 } 
	</style>
	<path id="Layer" class="shp0" d="M227.6 86.7C225.4 63.2 215.8 45.6 204.8 33.1C193.7 20.6 181.3 13 173 8.8C167.7 6.1 161.1 3.9 153.8 2.4C146.5 0.9 138.4 0 130 0C118.6 0 106.6 1.6 95.5 5.7C81.6 10.8 66.6 21.1 54.5 36.2C42.4 51.3 33.4 71.5 31.9 95.9C31.8 98.4 31.7 100.8 31.7 103.2C31.7 125.8 38.3 144.1 46.8 158.2C55.3 172.3 65.7 182.1 73.3 188.4C82 195.5 92.6 200.5 101.4 203.6C123.3 211.2 137.9 211.2 143.9 211.2C149.3 211.2 152.3 210.8 152.6 210.8L152.6 210.7C155 210.3 156.9 208.2 156.9 205.7L156.9 202.8C156.9 200 154.6 197.7 151.9 197.7C151.5 197.7 151.2 197.7 150.8 197.8C150.6 197.8 148.2 198.1 144 198.1C138.7 198.1 122.8 197.7 105.3 191C97.5 188 88.1 183.6 81.6 178.3C74.7 172.6 65.4 163.8 58 151.4C50.5 139 44.8 123.3 44.8 103.2C44.8 101.1 44.9 98.9 45 96.7C46.3 75 54.2 57.6 64.8 44.3C75.2 31.1 88.5 22.2 100 18C109.3 14.6 119.9 13.1 130 13.1C137.5 13.1 144.8 13.9 151.2 15.2C157.6 16.5 163.2 18.4 167.2 20.5C174.5 24.2 185.5 31 195 41.8C204.5 52.7 212.6 67.4 214.6 88C214.8 90.2 214.9 92.4 214.9 94.6C214.9 113.4 207.3 131.9 194.4 145.7C181.5 159.4 163.6 168.3 142.6 168.3L141.5 168.3C127.2 168.1 111.4 164.3 98.7 154.7C92.3 149.9 86.6 143.6 82.1 135.4C77.6 127.1 74.1 116.9 72.5 104.1L72.5 103.9C72.5 103.6 72.2 101.7 72.2 98.7C72.2 93.4 73 84.7 76.7 75.4C80.4 66 87 56 99.2 47.4C106.5 42.1 119.5 38.4 132.6 38.5C143.8 38.5 155 41.1 163.4 46.4C174.5 53.4 181.2 62.3 185.2 71.2C189.2 80.1 190.5 89 190.5 95.4C190.5 96.5 190.5 97.5 190.4 98.5C190 104.8 189 109.3 187.8 112.5C187.4 113.7 186.7 115.6 185.7 116.7C184.7 117.7 183.4 117.8 183.2 117.5C183 117.2 183 116.8 183 116.4C183 116 183.1 114.8 183.1 114.8L183.1 101.8C183.1 93.4 183 88.3 182.5 84.7C182.3 82.9 181.9 81.4 181.4 80.1C180.9 78.8 180.1 77.7 179.3 76.8C177.7 74.9 175.6 73.4 172.6 72.6C169.6 71.7 165.7 71.3 159.9 71.1C159.4 71.1 156.8 71 155.6 71L155.3 71C154.5 71 152.3 71.1 151.8 71.1C146.2 71.3 142.3 71.7 139.3 72.4C137.2 72.9 135.5 73.6 134 74.6C132.6 73.7 131 72.9 129 72.4C126.1 71.7 122.4 71.3 117.1 71.1C116.6 71.1 114 71 112.8 71L112.5 71C111.7 71 109.5 71.1 109 71.1C102.9 71.3 98.8 71.7 95.7 72.6C92.6 73.4 90.4 74.9 88.7 76.9C87.9 77.8 87.2 78.9 86.7 80.2C85.2 84.1 85 89.3 85 101.8L85 125.5C85 128.2 87.2 130.3 89.8 130.3L92.7 130.3C95.4 130.3 97.5 128.1 97.5 125.5L97.5 101.8C97.5 94.6 97.5 90.4 97.7 88C97.8 86.8 97.9 86 98.1 85.5C98.2 85 98.3 84.9 98.5 84.7C98.7 84.5 98.9 84.3 99.4 84.1C100.9 83.3 105 82.8 112.9 82.7C118 82.8 121.4 83 123.5 83.4C124.6 83.6 125.3 83.8 125.8 84.1C126.3 84.3 126.5 84.5 126.7 84.8L126.8 84.9C127 85.1 127.1 85.2 127.2 85.7C127.4 86.3 127.6 87.8 127.7 90.3C127.8 92.9 127.8 96.6 127.8 101.9L127.8 125.7C127.8 128.3 130 130.5 132.6 130.5L135.5 130.5C138.1 130.5 140.3 128.4 140.3 125.7L140.3 101.9C140.3 94.7 140.3 90.5 140.5 88.1C140.6 86.9 140.7 86.1 140.9 85.6C141 85.1 141.1 85 141.3 84.8C141.5 84.6 141.7 84.4 142.2 84.2C143.7 83.4 147.8 82.9 155.7 82.8C160.8 82.9 164.2 83.1 166.3 83.5C167.4 83.7 168.1 83.9 168.6 84.2C169.1 84.4 169.3 84.6 169.5 84.9L169.6 85C169.8 85.2 169.9 85.3 170 85.8C170.2 86.4 170.4 87.9 170.5 90.4C170.6 93 170.6 96.7 170.6 102L170.6 120.1C170.6 120.1 169.5 133.4 181.6 133.4C183.7 133.4 186 132.9 188.4 131.7C192 129.9 195.6 126.5 198.3 121.3C201 116.1 202.9 109.1 203.5 99.5C203.6 98.3 203.6 97 203.6 95.6C203.6 87.5 202.1 76.9 197.1 66C192.2 55.1 183.8 44 170.4 35.6C159.2 28.6 145.7 25.7 132.6 25.7C117.2 25.8 102.2 29.6 91.6 37C77.3 47.1 69.1 59.5 64.6 70.8C60.1 82.2 59.2 92.5 59.2 98.9C59.2 102.8 59.5 105.3 59.6 106C61.4 120.2 65.2 132.1 70.7 141.9C78.8 156.7 90.5 166.7 103.1 172.8C115.7 179 129.1 181.4 141.4 181.6L142.7 181.6C167.4 181.6 188.9 171 204 154.9C219.1 138.8 228 117.2 228 94.9C227.9 91.9 227.8 89.3 227.6 86.7" />
	<path id="Layer" fill-rule="evenodd" class="shp1" d="M4.3 287.5L4.3 267.9C4.3 252.3 1.3 250.1 -18.9 250.1C-35.2 250.1 -39.8 252.5 -39.8 260L-39.8 261.9L-33.3 261.9L-33.3 261.1C-33.3 256.3 -31 255.5 -18.7 255.5C-5.1 255.5 -2.3 257.1 -2.3 265.2L-2.3 268.9L-2.4 268.9C-4.3 266.2 -6.9 265.3 -12.2 265.2L-18.9 265C-20.1 264.9 -21.2 264.9 -22.4 264.9C-38.8 264.9 -41.4 266.6 -41.4 276.9C-41.4 285.7 -38.1 287.4 -18.7 287.4C-7.5 287.4 -4.8 286.5 -2.1 282.7L-2.1 287.4M-2.6 276C-2.6 280.9 -5.4 282 -17.4 282C-32.8 282 -34.9 281.5 -34.9 276.4C-34.9 270.9 -33.3 270.4 -18.7 270.4C-6.1 270.4 -2.7 271.5 -2.6 276ZM33.5 287.4C52.6 287.4 56.4 285.4 56.4 276.4C56.4 270.9 54.3 267.7 50 266.5C48.5 266 46.4 265.7 44.5 265.6C42.5 265.5 39.7 265.4 36.3 265.4C32.4 265.4 29.8 265.3 28.6 265.3L26.6 265.3C18.9 265.3 17.1 264.7 17.1 260.7C17.1 256.3 20.1 255.4 33.1 255.4C45.9 255.4 48.5 256.3 48.6 261.1L48.6 262L55.2 262L55.2 260.8C55.2 252.3 50.7 250 33.3 250C14.8 250 10.7 252.2 10.7 261C10.7 268.2 14.2 270.9 23.9 271L31.2 271C35.2 271 38.5 271.1 41.1 271.1C47.7 271.1 49.9 272.4 49.9 276.5C49.9 281.3 47.6 282 33.8 282C17.8 282 16.6 281.6 16.6 275.2L16.6 273.8L10 273.8C9.9 275.2 9.9 275.6 9.9 276C9.9 285.5 13.5 287.4 33.5 287.4ZM83.2 288.1C96.2 288.1 99.5 285 99.4 273.1L99.4 270.4L93 270.4L93 273.1C93 281.2 91.7 282.4 83.6 282.5C74.6 282.5 72.9 281.1 72.8 273.8L72.8 255.4L98.8 255.4L98.8 249.9L72.8 249.9L72.8 241L66.3 241L66.3 249.9L57.1 249.9L57.1 255.4L66.3 255.4L66.3 273.4C66.3 285.2 69.5 288.1 83.2 288.1ZM149.3 270.2C149.3 253.2 145.3 250 125 250C106.3 250 101.8 253.7 101.8 269.1C101.8 284.2 106.4 287.5 128.7 287.5C143.8 287.5 149.2 284.3 149.2 275.4L142.6 275.4C142.1 280.9 139.5 282.1 128.1 282.1C111.6 282.1 108.9 280.4 108.4 270.2L149.3 270.2ZM142.3 264.9L108.6 264.9C109.3 257.3 112.6 255.4 124.8 255.4C138.6 255.4 142.3 257.3 142.3 264.9ZM195 267.6L195 263.6C195 253.4 190.8 250 178.2 250C167.1 250 163.6 250.7 161.1 255L161.1 250L154.6 250L154.6 287.4L161.1 287.4L161.1 270.1C161.1 257.3 163.6 255.6 177.5 255.6C186.5 255.6 188.5 257.2 188.5 264.7L188.5 267.5L195 267.6ZM261.5 272.5L261.5 268.6L253.9 268.6L253.9 271.3C253.7 280.6 252.6 280.9 230.1 280.9C215.1 280.9 210.5 280.5 208.5 278.6C206.6 276.9 205.7 271 205.7 259.3C205.7 248.8 206.5 244.3 208.7 242.4C210.8 240.7 217.3 240 231.5 240C251.1 240 253.6 241 253.6 249.5C253.6 249.9 253.7 250.6 253.7 251.6L260.9 251.6L260.8 248.2C260.7 235.6 256.5 233.3 232 233.3C214.1 233.3 206.8 234.2 203.2 237C199.5 239.8 198.1 246.1 198.1 261.2C198.1 274.2 199.3 280 202.4 283.1C206 286.5 211.7 287.4 233.1 287.4C257.9 287.4 260.9 285.9 261.5 272.5ZM312.2 287.3L312.2 267.8C312.2 252 309.2 249.9 291 249.9C278.7 249.9 274.5 251.3 271.8 256L271.8 233.4L265.3 233.4L265.3 287.4L271.8 287.4L271.8 269.7C271.8 257.4 274.7 255.8 290.1 255.8C304 255.8 305.6 256.5 305.6 269.7L305.6 287.4L312.2 287.3ZM365.1 270.2C365.1 253.2 361.1 250 340.8 250C322.1 250 317.6 253.7 317.6 269.1C317.6 284.2 322.2 287.5 344.5 287.5C359.6 287.5 365 284.3 365 275.4L358.4 275.4C357.9 280.9 355.3 282.1 343.9 282.1C327.4 282.1 324.7 280.4 324.2 270.2L365.1 270.2ZM358.1 264.9L324.4 264.9C325.1 257.3 328.4 255.4 340.6 255.4C354.4 255.4 358 257.3 358.1 264.9ZM397.7 255.6L397.7 250L378.7 250C378.7 249.5 378.8 249 378.8 248.8C379 240.3 380.3 239.4 391 239.1L397.7 238.9L397.7 233.4L390.6 233.6C375.7 234.1 372.7 236.7 372.4 248.5C372.4 248.8 372.4 249.5 372.3 250L363.9 250L363.9 255.6L372.3 255.6L372.3 287.4L378.7 287.4L378.7 255.6L397.7 255.6ZM-68.1 233.8C-68.6 233.8 -71.5 233.7 -72.3 233.7C-72.9 233.7 -75.2 233.8 -75.7 233.8C-86.4 234.2 -90.3 235.2 -93 237.8C-95.6 235.3 -99.4 234.2 -109.5 233.8C-110 233.8 -112.9 233.7 -113.7 233.7C-114.3 233.7 -116.6 233.8 -117.1 233.8C-128.8 234.2 -132.4 235.4 -135.1 238.6C-137.6 241.7 -138.1 245.2 -138.1 261.3L-138.1 286.7L-130.5 286.7L-130.5 261.3C-130.5 247.5 -130.5 245.1 -129.1 243.3C-127.5 241.4 -123.8 240.7 -113.5 240.5C-103.5 240.7 -100.1 241.4 -98.4 243.3C-96.8 245 -96.8 247.5 -96.8 261.3L-96.8 286.7L-89.2 286.7L-89.2 261.3C-89.2 247.5 -89.2 245.1 -87.8 243.3C-86.2 241.4 -82.5 240.7 -72.1 240.5C-62.1 240.7 -58.7 241.4 -57.1 243.3C-55.5 245 -55.5 247.5 -55.5 261.3L-55.5 286.7L-47.9 286.7L-47.9 261.3C-47.8 245.2 -48.2 241.7 -50.9 238.6C-53.5 235.5 -57.1 234.3 -68.1 233.8Z" />
</svg>